<?xml version="1.0" encoding="windows-1252"?>
<!-- Generator: Adobe Illustrator 19.0.0, SVG Export Plug-In . SVG Version: 6.00 Build 0)  -->
<svg xmlns="http://www.w3.org/2000/svg" xmlns:xlink="http://www.w3.org/1999/xlink" version="1.1" id="Capa_1" x="0px" y="0px" viewBox="0 0 508 508" style="enable-background:new 0 0 508 508;" xml:space="preserve" width="20px" height="20px">
<g>
	<g>
		<path d="M434.3,143.6V51.2h-116L254,0l-64.3,51.2h-116v92.3L0,202.3V508h508V202.3L434.3,143.6z M434.3,164.5l52.4,41.7L434.3,248    V164.5z M254,20.9l38.1,30.3h-76.2L254,20.9z M90.1,67.5h327.8V261l-84.8,67.5H174.9L90.1,261V67.5z M73.7,164.4V248l-52.4-41.8    L73.7,164.4z M16.4,223.2l143.4,114.2L16.4,480.2V223.2z M28,491.7l147.5-146.8h157.1L480,491.7H28z M491.6,480.2L348.2,337.4    l143.4-114.2V480.2z" fill="#D80027"/>
	</g>
</g>
<g>
	<g>
		<rect x="122.9" y="108.3" width="262.2" height="16.3" fill="#D80027"/>
	</g>
</g>
<g>
	<g>
		<rect x="122.9" y="173.6" width="262.2" height="16.3" fill="#D80027"/>
	</g>
</g>
<g>
	<g>
		<rect x="122.9" y="238.8" width="114.7" height="16.3" fill="#D80027"/>
	</g>
</g>
<g>
	<g>
		<rect x="303.2" y="238.8" width="81.9" height="16.3" fill="#D80027"/>
	</g>
</g>
<g>
</g>
<g>
</g>
<g>
</g>
<g>
</g>
<g>
</g>
<g>
</g>
<g>
</g>
<g>
</g>
<g>
</g>
<g>
</g>
<g>
</g>
<g>
</g>
<g>
</g>
<g>
</g>
<g>
</g>
</svg>