<?xml version="1.0" encoding="windows-1252"?>
<!-- Generator: Adobe Illustrator 17.1.0, SVG Export Plug-In . SVG Version: 6.00 Build 0)  -->
<!DOCTYPE svg PUBLIC "-//W3C//DTD SVG 1.1//EN" "http://www.w3.org/Graphics/SVG/1.1/DTD/svg11.dtd">
<svg xmlns="http://www.w3.org/2000/svg" xmlns:xlink="http://www.w3.org/1999/xlink" version="1.1" id="Capa_1" x="0px" y="0px" viewBox="0 0 465.342 465.342" style="enable-background:new 0 0 465.342 465.342;" xml:space="preserve" width="20px" height="20px">
<g>
	<path d="M60.071,41.414c-21.896,0-37.425,5.255-47.475,16.064C4.12,66.596,0,79.309,0,96.344v272.654   c0,17.035,4.12,29.748,12.597,38.866c10.05,10.809,25.578,16.063,47.475,16.063s37.425-5.255,47.475-16.063   c8.477-9.118,12.597-21.831,12.597-38.866V96.344c0-17.035-4.12-29.748-12.597-38.865C97.496,46.669,81.968,41.414,60.071,41.414z    M105.143,368.998c0,20.738-5.46,39.93-45.071,39.93S15,389.736,15,368.998V96.344c0-20.738,5.46-39.93,45.071-39.93   s45.071,19.191,45.071,39.93V368.998z" fill="#D80027"/>
	<path d="M438.93,41.414H161.555c-14.563,0-26.412,11.849-26.412,26.412v329.689c0,14.563,11.849,26.412,26.412,26.412H438.93   c14.563,0,26.412-11.849,26.412-26.412V67.826C465.342,53.263,453.493,41.414,438.93,41.414z M450.342,397.516   c0,6.293-5.119,11.412-11.412,11.412H161.555c-6.293,0-11.412-5.119-11.412-11.412V67.826c0-6.293,5.119-11.412,11.412-11.412   H438.93c6.293,0,11.412,5.119,11.412,11.412V397.516z" fill="#D80027"/>
	<path d="M216.525,344.626h-18c-4.143,0-7.5,3.357-7.5,7.5s3.357,7.5,7.5,7.5h18c4.143,0,7.5-3.357,7.5-7.5   S220.668,344.626,216.525,344.626z" fill="#D80027"/>
	<path d="M340.147,344.626h-18c-4.143,0-7.5,3.357-7.5,7.5s3.357,7.5,7.5,7.5h18c4.143,0,7.5-3.357,7.5-7.5   S344.29,344.626,340.147,344.626z" fill="#D80027"/>
	<path d="M278.336,344.626h-18c-4.143,0-7.5,3.357-7.5,7.5s3.357,7.5,7.5,7.5h18c4.143,0,7.5-3.357,7.5-7.5   S282.479,344.626,278.336,344.626z" fill="#D80027"/>
	<path d="M216.525,288.928h-18c-4.143,0-7.5,3.357-7.5,7.5s3.357,7.5,7.5,7.5h18c4.143,0,7.5-3.357,7.5-7.5   S220.668,288.928,216.525,288.928z" fill="#D80027"/>
	<path d="M340.147,288.928h-18c-4.143,0-7.5,3.357-7.5,7.5s3.357,7.5,7.5,7.5h18c4.143,0,7.5-3.357,7.5-7.5   S344.29,288.928,340.147,288.928z" fill="#D80027"/>
	<path d="M278.336,288.928h-18c-4.143,0-7.5,3.357-7.5,7.5s3.357,7.5,7.5,7.5h18c4.143,0,7.5-3.357,7.5-7.5   S282.479,288.928,278.336,288.928z" fill="#D80027"/>
	<path d="M216.525,233.229h-18c-4.143,0-7.5,3.357-7.5,7.5s3.357,7.5,7.5,7.5h18c4.143,0,7.5-3.357,7.5-7.5   S220.668,233.229,216.525,233.229z" fill="#D80027"/>
	<path d="M340.147,233.229h-18c-4.143,0-7.5,3.357-7.5,7.5s3.357,7.5,7.5,7.5h18c4.143,0,7.5-3.357,7.5-7.5   S344.29,233.229,340.147,233.229z" fill="#D80027"/>
	<path d="M278.336,233.229h-18c-4.143,0-7.5,3.357-7.5,7.5s3.357,7.5,7.5,7.5h18c4.143,0,7.5-3.357,7.5-7.5   S282.479,233.229,278.336,233.229z" fill="#D80027"/>
	<path d="M401.959,233.229h-18c-4.143,0-7.5,3.357-7.5,7.5s3.357,7.5,7.5,7.5h10.5v96.396h-10.5c-4.143,0-7.5,3.357-7.5,7.5   s3.357,7.5,7.5,7.5h18c4.143,0,7.5-3.357,7.5-7.5V240.729C409.459,236.587,406.102,233.229,401.959,233.229z" fill="#D80027"/>
	<path d="M417.842,81.414H182.643c-4.143,0-7.5,3.357-7.5,7.5v87.514c0,4.143,3.357,7.5,7.5,7.5h20c4.143,0,7.5-3.357,7.5-7.5   s-3.357-7.5-7.5-7.5h-12.5V96.414h220.199v72.514H232.643c-4.143,0-7.5,3.357-7.5,7.5s3.357,7.5,7.5,7.5h185.199   c4.143,0,7.5-3.357,7.5-7.5V88.914C425.342,84.771,421.984,81.414,417.842,81.414z" fill="#D80027"/>
</g>
<g>
</g>
<g>
</g>
<g>
</g>
<g>
</g>
<g>
</g>
<g>
</g>
<g>
</g>
<g>
</g>
<g>
</g>
<g>
</g>
<g>
</g>
<g>
</g>
<g>
</g>
<g>
</g>
<g>
</g>
</svg>